<svg width="24" height="24" viewBox="0 0 24 24" fill="none" xmlns="http://www.w3.org/2000/svg">
<path fill-rule="evenodd" clip-rule="evenodd" d="M16.6427 9.33333H15.8808V7.80952C15.8808 5.70667 14.1742 4 12.0713 4C9.96845 4 8.26179 5.70667 8.26179 7.80952V9.33333H7.49988C6.66179 9.33333 5.97607 10.019 5.97607 10.8571V18.4762C5.97607 19.3143 6.66179 20 7.49988 20H16.6427C17.4808 20 18.1665 19.3143 18.1665 18.4762V10.8571C18.1665 10.019 17.4808 9.33333 16.6427 9.33333ZM9.7098 7.80966C9.7098 6.5068 10.7688 5.44775 12.0717 5.44775C13.3746 5.44775 14.4336 6.5068 14.4336 7.80966V9.33347H9.7098V7.80966ZM7.50016 18.4761H16.643V10.8571H7.50016V18.4761Z" fill="white"/>
</svg>
