<svg width="58" height="14" viewBox="0 0 58 14" fill="none" xmlns="http://www.w3.org/2000/svg">
<path d="M3.40469 10.568H4.09269C4.88202 10.568 5.44736 10.4667 5.78869 10.264C6.13002 10.0613 6.30069 9.736 6.30069 9.288C6.30069 8.84 6.13002 8.51467 5.78869 8.312C5.44736 8.10933 4.88202 8.008 4.09269 8.008H3.40469V10.568ZM3.40469 5.672H3.98069C4.96202 5.672 5.45269 5.28267 5.45269 4.504C5.45269 3.72533 4.96202 3.336 3.98069 3.336H3.40469V5.672ZM0.268688 0.936H4.94069C6.05002 0.936 6.89269 1.20267 7.46869 1.736C8.04469 2.26933 8.33269 3.03733 8.33269 4.04C8.33269 4.648 8.22069 5.15467 7.99669 5.56C7.78336 5.95467 7.45269 6.29067 7.00469 6.568C7.45269 6.65333 7.83136 6.78667 8.14069 6.968C8.46069 7.13867 8.71669 7.352 8.90869 7.608C9.11136 7.864 9.25536 8.152 9.34069 8.472C9.42602 8.792 9.46869 9.13333 9.46869 9.496C9.46869 10.0613 9.36736 10.5627 9.16469 11C8.97269 11.4373 8.69536 11.8053 8.33269 12.104C7.98069 12.4027 7.54869 12.6267 7.03669 12.776C6.52469 12.9253 5.94869 13 5.30869 13H0.268688V0.936ZM15.6828 6.968C15.6828 7.448 15.7735 7.89067 15.9548 8.296C16.1361 8.70133 16.3815 9.05333 16.6908 9.352C17.0001 9.65067 17.3575 9.88533 17.7628 10.056C18.1788 10.216 18.6161 10.296 19.0748 10.296C19.5335 10.296 19.9655 10.216 20.3708 10.056C20.7868 9.88533 21.1495 9.65067 21.4588 9.352C21.7788 9.05333 22.0295 8.70133 22.2108 8.296C22.3921 7.89067 22.4828 7.448 22.4828 6.968C22.4828 6.488 22.3921 6.04533 22.2108 5.64C22.0295 5.23467 21.7788 4.88267 21.4588 4.584C21.1495 4.28533 20.7868 4.056 20.3708 3.896C19.9655 3.72533 19.5335 3.64 19.0748 3.64C18.6161 3.64 18.1788 3.72533 17.7628 3.896C17.3575 4.056 17.0001 4.28533 16.6908 4.584C16.3815 4.88267 16.1361 5.23467 15.9548 5.64C15.7735 6.04533 15.6828 6.488 15.6828 6.968ZM12.4028 6.968C12.4028 6.072 12.5681 5.24 12.8988 4.472C13.2295 3.69333 13.6881 3.016 14.2748 2.44C14.8615 1.864 15.5601 1.416 16.3708 1.096C17.1921 0.765333 18.0935 0.599999 19.0748 0.599999C20.0455 0.599999 20.9415 0.765333 21.7628 1.096C22.5841 1.416 23.2881 1.864 23.8748 2.44C24.4721 3.016 24.9361 3.69333 25.2668 4.472C25.5975 5.24 25.7628 6.072 25.7628 6.968C25.7628 7.864 25.5975 8.70133 25.2668 9.48C24.9361 10.248 24.4721 10.92 23.8748 11.496C23.2881 12.072 22.5841 12.5253 21.7628 12.856C20.9415 13.176 20.0455 13.336 19.0748 13.336C18.0935 13.336 17.1921 13.176 16.3708 12.856C15.5601 12.5253 14.8615 12.072 14.2748 11.496C13.6881 10.92 13.2295 10.248 12.8988 9.48C12.5681 8.70133 12.4028 7.864 12.4028 6.968ZM28.7437 13V0.936H31.8797L37.6717 8.312V0.936H40.7917V13H37.6717L31.8797 5.624V13H28.7437ZM47.1984 6.968C47.1984 7.448 47.2891 7.89067 47.4704 8.296C47.6518 8.70133 47.8971 9.05333 48.2064 9.352C48.5158 9.65067 48.8731 9.88533 49.2784 10.056C49.6944 10.216 50.1318 10.296 50.5904 10.296C51.0491 10.296 51.4811 10.216 51.8864 10.056C52.3024 9.88533 52.6651 9.65067 52.9744 9.352C53.2944 9.05333 53.5451 8.70133 53.7264 8.296C53.9078 7.89067 53.9984 7.448 53.9984 6.968C53.9984 6.488 53.9078 6.04533 53.7264 5.64C53.5451 5.23467 53.2944 4.88267 52.9744 4.584C52.6651 4.28533 52.3024 4.056 51.8864 3.896C51.4811 3.72533 51.0491 3.64 50.5904 3.64C50.1318 3.64 49.6944 3.72533 49.2784 3.896C48.8731 4.056 48.5158 4.28533 48.2064 4.584C47.8971 4.88267 47.6518 5.23467 47.4704 5.64C47.2891 6.04533 47.1984 6.488 47.1984 6.968ZM43.9184 6.968C43.9184 6.072 44.0838 5.24 44.4144 4.472C44.7451 3.69333 45.2038 3.016 45.7904 2.44C46.3771 1.864 47.0758 1.416 47.8864 1.096C48.7078 0.765333 49.6091 0.599999 50.5904 0.599999C51.5611 0.599999 52.4571 0.765333 53.2784 1.096C54.0998 1.416 54.8038 1.864 55.3904 2.44C55.9878 3.016 56.4518 3.69333 56.7824 4.472C57.1131 5.24 57.2784 6.072 57.2784 6.968C57.2784 7.864 57.1131 8.70133 56.7824 9.48C56.4518 10.248 55.9878 10.92 55.3904 11.496C54.8038 12.072 54.0998 12.5253 53.2784 12.856C52.4571 13.176 51.5611 13.336 50.5904 13.336C49.6091 13.336 48.7078 13.176 47.8864 12.856C47.0758 12.5253 46.3771 12.072 45.7904 11.496C45.2038 10.92 44.7451 10.248 44.4144 9.48C44.0838 8.70133 43.9184 7.864 43.9184 6.968Z" fill="white"/>
</svg>
